<svg width="40" height="40" viewBox="0 0 24 24" fill="white" xmlns="http://www.w3.org/2000/svg">
  <path d="M16.365 1.43c0 1.14-.465 2.258-1.246 3.115-.79.865-2.095 1.53-3.29 1.437-.155-1.107.35-2.287 1.15-3.13.78-.83 2.13-1.455 3.386-1.422zM21.8 17.36c-.51 1.18-.75 1.71-1.41 2.76-.93 1.46-2.25 3.28-3.88 3.3-1.44.02-1.81-.95-3.78-.95s-2.38.93-3.79.97c-1.64.03-2.9-1.67-3.83-3.13-2.14-3.35-2.37-7.28-1.04-9.33.94-1.45 2.43-2.3 3.77-2.3 1.42 0 2.32.98 3.79.98 1.42 0 2.29-.98 3.78-.98 1.2 0 2.47.65 3.41 1.77-2.99 1.64-2.5 6.03.98 7.91z"></path>
</svg>
